<svg xmlns="http://www.w3.org/2000/svg" viewBox="0 0 200 200" font-family="sans-serif">
  <circle cx="100" cy="100" r="78" fill="none" stroke="#26282b" stroke-width="1.5"/>
  <g stroke="#b8925a" stroke-width="2.5" stroke-linecap="round">
    <line x1="100" y1="100" x2="100" y2="34"/><line x1="100" y1="100" x2="147" y2="53"/>
    <line x1="100" y1="100" x2="166" y2="100"/><line x1="100" y1="100" x2="147" y2="147"/>
    <line x1="100" y1="100" x2="100" y2="166"/><line x1="100" y1="100" x2="53" y2="147"/>
    <line x1="100" y1="100" x2="34" y2="100"/><line x1="100" y1="100" x2="53" y2="53"/>
  </g>
  <g fill="#b8925a">
    <polygon points="100,26 95,38 105,38"/><polygon points="153,47 142,51 149,58"/>
    <polygon points="174,100 162,95 162,105"/><polygon points="153,153 149,142 142,149"/>
    <polygon points="100,174 105,162 95,162"/><polygon points="47,153 58,149 51,142"/>
    <polygon points="26,100 38,105 38,95"/><polygon points="47,47 51,58 58,51"/>
  </g>
  <circle cx="100" cy="100" r="6" fill="#e8e4dc"/>
  <text x="100" y="18" fill="#a6a19a" font-size="11" text-anchor="middle">1</text>
  <text x="158" y="44" fill="#a6a19a" font-size="11">2</text>
  <text x="184" y="104" fill="#a6a19a" font-size="11">3</text>
  <text x="158" y="166" fill="#a6a19a" font-size="11">4</text>
  <text x="100" y="192" fill="#a6a19a" font-size="11" text-anchor="middle">5</text>
  <text x="36" y="166" fill="#a6a19a" font-size="11">6</text>
  <text x="8" y="104" fill="#a6a19a" font-size="11">7</text>
  <text x="36" y="44" fill="#a6a19a" font-size="11">8</text>
</svg>
